HIERARCHY
ROOT pelvis
{
  OFFSET 0 100 0
  CHANNELS 6 Xposition Yposition Zposition Zrotation Xrotation Yrotation
  JOINT pelvis_right_femur
  {
    OFFSET -10.78128 -3.44521 -0.5502486
    CHANNELS 3 Zrotation Xrotation Yrotation
    JOINT right_femur_tibia
    {
      OFFSET -0.8047443 -44.0398 -0.1307829
      CHANNELS 3 Zrotation Xrotation Yrotation
      JOINT right_tibia_foot
      {
        OFFSET 3.006224 -47.83518 -5
        CHANNELS 3 Zrotation Xrotation Yrotation
        End Site
        {
          OFFSET 0 -5 15
        }
      }
    }
  }
  JOINT pelvis_left_femur
  {
    OFFSET 10.78128 -3.44521 -0.5502486
    CHANNELS 3 Zrotation Xrotation Yrotation
    JOINT left_femur_tibia
    {
      OFFSET 0.8047443 -44.0398 -0.1307829
      CHANNELS 3 Zrotation Xrotation Yrotation
      JOINT left_tibia_foot
      {
        OFFSET -4.370144 -48.10324 -4.275266
        CHANNELS 3 Zrotation Xrotation Yrotation
        End Site
        {
          OFFSET 0 -5 15
        }
      }
    }
  }
  JOINT pelvis_spine1
  {
    OFFSET 0 6.468898 -3.129235
    CHANNELS 3 Zrotation Xrotation Yrotation
    JOINT spine1
    {
      OFFSET 0 23.15396 4.99043
      CHANNELS 3 Zrotation Xrotation Yrotation
      JOINT spine2
      {
        OFFSET 0 20.79997 -5.064912
        CHANNELS 3 Zrotation Xrotation Yrotation
        JOINT neck
        {
          OFFSET 0 14.38658 9.616178
          CHANNELS 3 Zrotation Xrotation Yrotation
          End Site
          {
            OFFSET 0 20 0
          }
        }
      }
      JOINT right_manubrium
      {
        OFFSET -5.722621 16.35077 3.967754
        CHANNELS 3 Zrotation Xrotation Yrotation
        JOINT right_clavicle
        {
          OFFSET -13.16364 1.694482 -4.693211
          CHANNELS 3 Zrotation Xrotation Yrotation
          JOINT right_humerus
          {
            OFFSET -28.5034 -0.3100689 -2.792744
            CHANNELS 3 Zrotation Xrotation Yrotation
            JOINT right_radius
            {
              OFFSET -25.15693 0.02248979 -1.271978
              CHANNELS 3 Zrotation Xrotation Yrotation
              End Site
              {
                OFFSET -15 0 0
              }
            }
          }
        }
      }
      JOINT left_manubrium
      {
        OFFSET 5.722621 16.35077 3.967754
        CHANNELS 3 Zrotation Xrotation Yrotation
        JOINT left_clavicle
        {
          OFFSET 13.16364 1.694482 -4.693211
          CHANNELS 3 Zrotation Xrotation Yrotation
          JOINT left_humerus
          {
            OFFSET 29.39168 -1.063119 -2.237045
            CHANNELS 3 Zrotation Xrotation Yrotation
            JOINT left_radius
            {
              OFFSET 24.59957 -0.9528479 0.9047498
              CHANNELS 3 Zrotation Xrotation Yrotation
              End Site
              {
                OFFSET 15 -0 -0
              }
            }
          }
        }
      }
    }
  }
}
MOTION
Frames: 23
Frame Time: 0.0416666666667
1017.414 101.4449 2958.796 3.457259 -2.501147 35.132 0.2498199 -27.10973 0.9090349 -0 12.62291 -0 0.7267711 -0.2637712 -8.261077 -5.253729 15.74633 -7.261738 -0 14.80751 -0 -4.253459 -20.60318 11.53685 -3.989512 -1.349769 2.79474 4.221715 8.500385 -8.317966 0.5189256 20.98023 9.617734 3.5014 -28.45538 11.80228 3.866474 -19.06475 13.37751 89.01469 36.54149 -19.82225 -0 0 10.94761 -8.324906 6.515879 5.501473 6.575533 -21.27448 0.02304297 -86.14618 16.19184 12.66515 0 0 -25.71299 16.96478 10.08466 -9.503019
1021.167 100.2575 2964.434 3.057878 -1.894759 35.55457 0.8847742 -27.45105 1.24164 -0 8.738058 -0 1.043067 0.4646053 -8.433329 -5.129646 17.72225 -7.006321 -0 18.97396 -0 -5.836256 -19.90826 10.69201 -3.913487 -1.309562 2.781023 4.211217 8.517301 -8.329011 0.513657 20.88283 9.653077 3.570227 -28.40164 11.77066 3.942967 -18.96415 13.35099 89.0561 36.7068 -19.95879 -0 0 10.77453 -8.300123 6.659984 5.568259 6.60884 -21.37137 -0.08419311 -86.02457 16.31552 12.50096 0 0 -26.25278 16.87178 9.910711 -9.248386
1025.022 99.48476 2970.482 2.71199 -1.86756 35.84461 2.101897 -26.26378 2.305463 -0 8.47364 -0 1.013949 0.8609502 -8.652067 -4.688695 18.64876 -6.828489 -0 25.03096 -0 -7.314286 -17.87443 10.45708 -3.806774 -1.274569 2.817271 4.167618 8.601413 -8.332692 0.5141206 20.81086 9.622855 3.608601 -28.27412 11.66783 3.989207 -18.88912 13.32223 89.1276 36.80221 -20.0682 -0 0 10.62182 -8.401238 6.851916 5.680056 6.600141 -21.50563 -0.2208323 -85.94805 16.42082 12.44922 0 0 -26.62676 16.69507 9.792797 -8.874141
1028.894 99.29918 2976.794 2.547103 -2.529772 35.89053 3.699074 -23.56394 3.865132 -0 11.13843 -0 0.5596715 0.433689 -8.873593 -3.962937 18.09197 -6.743709 -0 32.73333 -0 -8.401013 -14.76897 11.04677 -3.676218 -1.244925 2.900937 4.092817 8.74713 -8.32729 0.5197837 20.76814 9.532017 3.617528 -28.07962 11.50133 4.004794 -18.83973 13.29307 89.2247 36.82564 -20.14693 -0 0 10.49441 -8.623003 7.081103 5.831464 6.549913 -21.66825 -0.3807455 -85.9203 16.50792 12.50851 0 0 -26.82147 16.43921 9.729218 -8.394414
1032.679 99.74886 2983.139 2.722026 -3.8019 35.59594 5.212065 -19.49726 5.410706 -0 15.20529 -0 -0.2940444 -1.047336 -8.98692 -3.183434 15.70945 -6.756531 -0 41.43636 -0 -8.890731 -11.31338 12.48246 -3.530385 -1.220644 3.026852 3.990166 8.944203 -8.311027 0.5296356 20.75556 9.389468 3.599994 -27.82782 11.28253 3.991837 -18.81591 13.26529 89.33808 36.78126 -20.18943 -0 0 10.39893 -8.953006 7.335396 6.017088 6.461698 -21.84746 -0.5560617 -85.94123 16.57757 12.67276 0 0 -26.83748 16.11329 9.71438 -7.828762
1036.295 100.7246 2989.262 3.329701 -5.358828 34.98276 6.101909 -14.34551 6.361766 -0 18.67748 -0 -1.361423 -3.385973 -8.804527 -2.674074 11.41994 -6.849028 -0 49.87118 -0 -8.865316 -8.513919 14.39368 -3.378232 -1.201711 3.187924 3.864147 9.179263 -8.282484 0.5424354 20.77107 9.20659 3.560316 -27.5304 11.02499 3.954442 -18.81742 13.24029 89.45532 36.67845 -20.18951 -0 0 10.34254 -9.372954 7.602511 6.231552 6.341592 -22.03047 -0.7381139 -86.00741 16.6309 12.93221 0 0 -26.68804 15.73024 9.740146 -7.200099
1039.723 101.9828 2994.995 4.218034 -6.618225 34.21111 6.111644 -8.587855 6.497896 -0 19.87173 -0 -2.146755 -5.959011 -8.160504 -2.556258 5.476247 -6.880539 -0 56.19919 -0 -8.7058 -7.070493 16.05939 -3.228114 -1.188071 3.375375 3.720417 9.436918 -8.241143 0.5569011 20.80987 8.996298 3.503775 -27.20103 10.74356 3.89839 -18.84322 13.21874 89.56294 36.53078 -20.14253 -0 0 10.33105 -9.859099 7.870873 6.468735 6.197939 -22.20486 -0.9181179 -86.1125 16.66981 13.27304 0 0 -26.3977 15.30666 9.796816 -6.533733
1043.007 103.2153 3000.328 4.987806 -7.059436 33.43368 5.51217 -2.880966 6.23291 -0 18.41495 -0 -2.046177 -8.03753 -7.14782 -2.501263 -1.52625 -6.569719 -0 58.66145 -0 -8.744197 -6.811051 17.02476 -3.087112 -1.179543 3.578771 3.565957 9.700739 -8.187953 0.5718233 20.86495 8.772448 3.436411 -26.8554 10.45377 3.830846 -18.89053 13.20052 89.64866 36.35492 -20.04811 -0 0 10.36658 -10.38269 8.130113 6.720738 6.041003 -22.35997 -1.087789 -86.24757 16.69726 13.67623 0 0 -26.00103 14.86252 9.873826 -5.856901
1046.205 104.0989 3005.371 5.349685 -6.82741 32.68575 4.879231 2.230126 6.060522 -0 15.57452 -0 -1.209774 -9.45082 -6.101058 -1.961987 -8.624304 -5.765026 -0 56.36868 -0 -8.829839 -6.987597 17.66124 -2.960547 -1.175684 3.786457 3.408869 9.95476 -8.125654 0.5861358 20.92808 8.548983 3.364681 -26.51065 10.17082 3.759657 -18.95423 13.18487 89.70395 36.16886 -19.9122 -0 0 10.44547 -10.91202 8.371517 6.977433 5.882087 -22.48831 -1.240162 -86.40162 16.71723 14.11696 0 0 -25.53982 14.41991 9.960548 -5.197577
1049.366 104.3699 3010.238 5.311799 -6.531162 31.9495 4.566148 6.576863 5.898132 -0 13.07765 -0 -0.5647348 -10.80756 -5.149853 -0.7901756 -14.82698 -4.679861 -0 49.66763 -0 -8.524916 -7.108931 18.53497 -2.851718 -1.175683 3.986565 3.257651 10.18537 -8.058605 0.5989818 20.99131 8.33876 3.294854 -26.18385 9.90832 3.69225 -19.02698 13.17079 89.72614 35.98948 -19.74748 -0 0 10.55752 -11.41608 8.588385 7.226946 5.732073 -22.58668 -1.370446 -86.56242 16.73404 14.56589 0 0 -25.05851 14.00071 10.04721 -4.582348
1052.562 103.9648 3015.016 4.93751 -6.339107 31.20228 4.465574 10.24396 5.488993 -0 11.78508 -0 -0.550596 -12.64186 -4.122892 0.5817967 -19.70027 -3.725594 -0 40.23166 -0 -7.7763 -7.117882 19.56036 -2.761963 -1.178298 4.168093 3.120345 10.38265 -7.992197 0.6097718 21.04811 8.152564 3.232453 -25.89046 9.677326 3.634663 -19.1 13.15753 89.71894 35.83058 -19.57203 -0 0 10.68698 -11.86771 8.776091 7.456689 5.600067 -22.65621 -1.476497 -86.71766 16.75168 14.99165 0 0 -24.59956 13.62421 10.12545 -4.034248
1055.894 103.0527 3019.806 4.290247 -5.981477 30.43518 4.264809 13.30555 4.895148 -0 11.78351 -0 -0.7875001 -14.62853 -2.950564 1.578053 -23.23989 -3.186412 -0 30.58182 -0 -6.917592 -7.081043 20.30672 -2.690869 -1.181872 4.321927 3.00367 10.54095 -7.931998 0.61821 21.09388 7.998417 3.181841 -25.64291 9.485717 3.590985 -19.16428 13.1447 89.69141 35.70174 -19.40663 -0 0 10.81497 -12.24611 8.932123 7.65491 5.49249 -22.70145 -1.558866 -86.85603 16.77339 15.3644 0 0 -24.19968 13.30519 10.18849 -3.570566
1059.469 101.9185 3024.74 3.59503 -5.349867 29.68207 3.72757 15.77668 4.354281 -0 13.07391 -0 -0.8258201 -15.79288 -1.804489 1.821524 -25.43851 -3.163787 -0 23.01584 -0 -6.167807 -7.063402 20.58563 -2.63662 -1.184506 4.441742 2.912244 10.65877 -7.882784 0.624274 21.12598 7.881115 3.145949 -25.44935 9.337782 3.563215 -19.21199 13.13227 89.6554 35.60799 -19.27107 -0 0 10.92301 -12.53844 9.056145 7.812512 5.412686 -22.72883 -1.620357 -86.96838 16.80152 15.65996 0 0 -23.8868 13.05235 10.23106 -3.200923
1063.364 100.8434 3029.933 3.202946 -4.640151 29.01779 2.768277 17.65511 4.100554 -0 15.9449 -0 -0.5127465 -15.15155 -0.9725854 1.200209 -26.27196 -3.660414 -0 18.79371 -0 -5.489275 -7.133123 20.48689 -2.596605 -1.18436 4.524142 2.848435 10.73757 -7.84795 0.6281211 21.1432 7.802535 3.126369 -25.31352 9.234647 3.551741 -19.23734 13.12035 89.62249 35.55076 -19.18113 -0 0 10.99608 -12.73932 9.149636 7.924027 5.36145 -22.74484 -1.665004 -87.04838 16.83772 15.86203 0 0 -23.67922 12.86858 10.24932 -2.927489
1067.608 100.0661 3035.423 3.357233 -4.117648 28.55283 1.485428 18.78937 4.288274 -0 20.9588 -0 0.1629414 -12.20869 -0.7094506 -0.1321109 -25.76333 -4.571594 -0 17.88877 -0 -4.777602 -7.349461 20.13101 -2.568134 -1.179885 4.567825 2.812966 10.78 -7.829535 0.6299396 21.14492 7.762772 3.123831 -25.23608 9.175521 3.556157 -19.23669 13.109 89.60186 35.52958 -19.14757 -0 0 11.02378 -12.8483 9.215076 7.987253 5.338243 -22.75482 -1.696904 -87.09199 16.8832 15.96133 0 0 -23.58808 12.753 10.24037 -2.747548
1072.145 99.798 3041.137 3.994973 -3.898679 28.43132 0.1998353 18.69227 4.820989 -0 28.51443 -0 1.170785 -7.300903 -1.109034 -1.823777 -23.87499 -5.679752 -0 19.19992 -0 -4.043196 -7.758425 19.52964 -2.548938 -1.169917 4.572477 2.805721 10.78831 -7.828624 0.6298123 21.13044 7.76138 3.138763 -25.2161 9.15899 3.575982 -19.20798 13.09809 89.59945 35.54378 -19.17681 -0 0 10.99984 -12.86705 9.255194 8.002321 5.342395 -22.76244 -1.719455 -87.09637 16.93888 15.95308 0 0 -23.62115 12.70317 10.20163 -2.656462
1076.811 100.1903 3046.889 4.768214 -3.934991 28.77816 -0.6394194 16.66708 5.266658 -0 38.08117 -0 2.276208 -1.753442 -2.044279 -3.465301 -20.50087 -6.737557 -0 21.07639 -0 -3.402857 -8.406996 18.69396 -2.537356 -1.153728 4.538125 2.826218 10.7637 -7.845669 0.6276408 21.09846 7.798022 3.171612 -25.25193 9.183637 3.611042 -19.1504 13.08727 89.61782 35.59337 -19.27159 -0 0 10.92159 -12.79786 9.272682 7.971143 5.373788 -22.76975 -1.735046 -87.0591 17.0055 15.8352 0 0 -23.78538 12.71645 10.13051 -2.649259
1081.363 101.2201 3052.429 5.288504 -4.139952 29.60891 -0.7852366 12.32551 5.19492 -0 47.72778 -0 2.953958 2.598604 -3.199134 -4.732434 -15.75687 -7.577138 -0 22.01235 -0 -2.883661 -9.320543 17.79898 -2.532214 -1.131147 4.465457 2.873383 10.70651 -7.880419 0.6231519 21.04723 7.872117 3.222705 -25.3406 9.247592 3.66141 -19.0646 13.07588 89.65595 35.6789 -19.43047 -0 0 10.79027 -12.64447 9.270556 7.897882 5.432744 -22.77736 -1.745126 -86.9784 17.08349 15.60909 0 0 -24.08607 12.78949 10.02492 -2.719953
1085.599 102.6218 3057.556 5.392656 -4.457888 30.79437 -0.4311743 6.036058 4.64593 -0 54.74201 -0 2.763238 4.573947 -4.278059 -5.465131 -10.24793 -8.134653 -0 21.30133 -0 -2.315354 -10.46272 17.10176 -2.532458 -1.102752 4.357054 2.944709 10.61752 -7.931464 0.6160061 20.97514 7.981506 3.29163 -25.4761 9.34711 3.72687 -18.95342 13.06297 89.70894 35.80027 -19.64617 -0 0 10.61232 -12.4148 9.252975 7.790194 5.519092 -22.78475 -1.750546 -86.85448 17.17258 15.28289 0 0 -24.52257 12.91633 9.884435 -2.858881
1089.458 103.9764 3062.205 5.1905 -4.823849 32.11558 0.03902278 -1.203295 4.017365 -0 57.04931 -0 1.834676 4.337876 -5.238774 -5.673504 -4.813373 -8.400975 -0 19.21771 -0 -1.57938 -11.79171 16.67306 -2.536635 -1.069935 4.218777 3.03537 10.49973 -7.995805 0.6060057 20.88179 8.120844 3.376458 -25.64766 9.47502 3.806154 -18.82253 13.04739 89.76871 35.95477 -19.90469 -0 0 10.40001 -12.124 9.225994 7.659995 5.630797 -22.79085 -1.752182 -86.69123 17.2715 14.87476 0 0 -25.08264 13.08604 9.711841 -3.049778
1093.015 104.8874 3066.47 4.894404 -5.111638 33.36188 0.386516 -8.3214 3.536595 -0 54.06643 -0 0.7361539 2.865046 -6.161897 -5.518389 0.02322197 -8.412985 -0 16.56716 -0 -0.8930642 -13.36215 16.30692 -2.542402 -1.03465 4.060255 3.13803 10.35982 -8.068934 0.5933301 20.76905 8.280765 3.473309 -25.83953 9.620109 3.896335 -18.67992 13.02804 89.82625 36.13557 -20.18691 -0 0 10.16975 -11.79544 9.197669 7.522521 5.762845 -22.795 -1.751698 -86.49728 17.37805 14.41316 0 0 -25.73911 13.28183 9.513799 -3.268739
1096.409 105.1189 3070.559 4.634195 -5.132141 34.40805 0.5199539 -14.59187 3.075824 -0 46.60002 -0 -0.02943519 1.122255 -7.001378 -5.25309 4.209128 -8.258422 -0 14.12736 -0 -0.6499021 -15.24938 15.71544 -2.54629 -0.9989044 3.894167 3.243505 10.20874 -8.145465 0.5786819 20.64164 8.448269 3.57648 -26.03256 9.767813 3.992645 -18.53452 13.00414 89.87479 36.33102 -20.47247 -0 0 9.938643 -11.45904 9.177364 7.393927 5.90689 -22.79793 -1.752158 -86.28558 17.48954 13.93358 0 0 -26.4507 13.48189 9.300445 -3.4857
1099.785 104.6464 3074.707 4.402465 -4.731443 35.23266 0.4282706 -19.69954 2.437287 -0 36.43867 -0 -0.2625548 -0.2216233 -7.622913 -5.096271 7.903815 -8.02138 -0 12.46977 -0 -1.048447 -17.32642 14.76298 -2.543916 -0.9643051 3.734817 3.341858 10.0611 -8.219912 0.5632615 20.50718 8.608062 3.679026 -26.2065 9.901772 4.088741 -18.39461 12.97559 89.91218 36.52514 -20.74365 -0 0 9.721057 -11.14825 9.174564 7.2887 6.051724 -22.80229 -1.758118 -86.07218 17.60333 13.47357 0 0 -27.16583 13.66145 9.084198 -3.667644
